<svg width="800" height="800" xmlns="http://www.w3.org/2000/svg">
 <g>
  <title>background</title>
  <rect x="-1" y="-1" width="802" height="802" id="canvas_background" fill="none"/>
 </g>

 <g>
  <title>Layer 1</title>
  <g stroke="null" id="svg_1">
   <path stroke="null" fill="#00A0FF" d="m638.86553,80.21434l0,0l0,0l0,0l0,0c-14.95021,-11.24696 -30.43242,-21.27313 -46.33175,-30.11477c-11.51039,-6.40007 -25.96489,-3.40853 -33.87828,7.1132l-99.70032,132.4252l-7.10936,9.44599c-10.79704,14.34123 -28.03845,22.14943 -45.97508,21.32752c-6.5411,-0.29613 -13.08219,-0.2357 -19.59911,0.17526c-50.11011,3.17284 -98.58797,27.34684 -131.14836,70.59414c-26.17647,34.76826 -37.65664,76.00307 -35.54076,116.30719c0.38086,7.25825 4.57635,13.88797 11.18999,16.89763c13.723,6.23689 24.28427,18.95846 26.9261,35.23361c3.73604,23.0197 -10.41014,45.63448 -32.75384,52.33068c-26.3397,7.89281 -53.39275,-8.23729 -59.32931,-34.593c-3.21614,-14.27475 0.47758,-28.47094 8.84438,-39.16189c4.64285,-5.92867 6.97636,-13.31383 6.31137,-20.81382c-4.58239,-51.68402 9.18897,-105.16901 42.86171,-149.89092c42.4748,-56.41004 107.10591,-86.26494 172.668,-86.64568c12.63483,-0.07252 24.49586,-6.10998 32.0949,-16.20263l91.81715,-121.94577c7.18795,-9.54269 2.5451,-23.25539 -8.92297,-26.62162c-153.73388,-45.08452 -325.87594,5.64463 -428.9798,139.88288c-133.59674,173.93802 -101.13308,424.73124 72.46591,558.79423c16.24392,12.54631 33.14075,23.62405 50.53933,33.28761c11.44389,6.35776 25.83793,3.24536 33.71506,-7.2099l99.70032,-132.41916l7.10936,-9.44599c10.79704,-14.34123 28.03845,-22.14943 45.97508,-21.32752c6.5411,0.29613 13.08219,0.2357 19.59911,-0.17526c50.11011,-3.17284 98.58797,-27.34684 131.14836,-70.59414c26.17647,-34.76826 37.65664,-76.00307 35.54076,-116.30719c-0.38086,-7.25825 -4.57635,-13.88797 -11.18999,-16.89763c-13.723,-6.23689 -24.28427,-18.95846 -26.9261,-35.23361c-3.73604,-23.0197 10.41014,-45.63448 32.75384,-52.32464c26.3397,-7.89281 53.39275,8.23729 59.32931,34.593c3.21614,14.27475 -0.47758,28.47094 -8.84438,39.16189c-4.64285,5.92867 -6.97636,13.31383 -6.31137,20.81382c4.58239,51.68402 -9.18897,105.16901 -42.86171,149.89092c-42.4748,56.41004 -107.10591,86.26494 -172.668,86.64568c-12.63483,0.07252 -24.49586,6.10998 -32.0949,16.20263l-91.81111,121.93973c-7.13354,9.47621 -2.65392,23.21913 8.72952,26.56723c154.9611,45.53174 328.67494,-6.31546 431.54304,-142.9409c132.55089,-176.07741 97.23986,-426.24211 -78.8861,-558.76401z" id="svg_2"/>
  </g>
 </g>
</svg>